<?xml version="1.0" standalone="no"?>
<!DOCTYPE svg PUBLIC "-//W3C//DTD SVG 20010904//EN"
 "http://www.w3.org/TR/2001/REC-SVG-20010904/DTD/svg10.dtd">
<svg version="1.0" xmlns="http://www.w3.org/2000/svg"
 width="1280.000000pt" height="861.000000pt" viewBox="0 0 1280.000000 861.000000"
 preserveAspectRatio="xMidYMid meet">
<metadata>
Created by potrace 1.15, written by Peter Selinger 2001-2017
</metadata>
<g transform="translate(0.000000,861.000000) scale(0.100000,-0.100000)"
fill="#000000" stroke="none">
<path d="M12140 8361 c-2009 -824 -2869 -1199 -2955 -1291 l-30 -32 26 -21
c15 -12 171 -141 348 -286 176 -145 321 -269 321 -275 0 -22 -413 -505 -687
-804 -69 -75 -216 -230 -325 -344 l-200 -208 -674 0 c-371 0 -675 -1 -676 -2
-1 -2 -4 -280 -7 -618 l-6 -615 -190 -152 c-104 -84 -196 -155 -202 -158 -10
-3 -13 29 -13 144 0 81 -3 182 -6 224 l-7 77 -988 0 -989 0 -1 -387 c-1 -214
-5 -624 -8 -911 l-6 -524 -183 -105 c-101 -58 -186 -102 -190 -98 -4 3 -8 217
-10 475 l-3 468 -457 7 c-437 7 -1511 -1 -1522 -12 -3 -2 -7 -441 -9 -975 l-3
-970 -47 -20 c-594 -259 -1321 -533 -2023 -765 -386 -127 -418 -140 -418 -160
0 -23 0 -23 174 -23 525 0 1223 103 2064 304 128 31 237 56 242 56 6 0 10 -58
10 -142 0 -79 3 -160 6 -180 l7 -38 987 0 987 0 6 248 c4 136 7 357 7 492 l0
245 187 67 c103 37 190 64 193 62 3 -3 7 -255 9 -560 l3 -554 987 0 988 0 6
308 c4 169 7 616 7 994 l0 687 199 100 c110 56 202 101 205 101 4 0 6 -442 6
-982 0 -541 3 -1034 7 -1095 l6 -113 989 0 988 0 0 738 c0 405 3 1099 6 1542
3 443 5 884 5 981 l-1 177 71 57 c39 32 193 164 343 293 815 709 1183 1057
1548 1467 l36 39 48 -39 c27 -22 185 -151 352 -288 321 -263 316 -260 341
-199 15 36 772 3722 778 3790 5 52 5 52 -23 52 -16 0 -301 -112 -634 -249z"/>
</g>
</svg>
